HIERARCHY
ROOT Hips
{
	OFFSET -0.001795 -0.223333 0.028219
	CHANNELS 6 Xposition Yposition Zposition Zrotation Yrotation Xrotation 
	JOINT LeftUpLeg
	{
		OFFSET 0.069520 -0.091406 -0.006815
		CHANNELS 3 Zrotation Yrotation Xrotation
		JOINT LeftLeg
		{
			OFFSET 0.034277 -0.375199 -0.004496
			CHANNELS 3 Zrotation Yrotation Xrotation
			JOINT LeftFoot
			{
				OFFSET -0.013596 -0.397961 -0.043693
				CHANNELS 3 Zrotation Yrotation Xrotation
				JOINT LeftToe
				{
					OFFSET 0.026358 -0.055791 0.119288
					CHANNELS 3 Zrotation Yrotation Xrotation
					End Site
					{
						OFFSET 0.000000 0.000000 0.000000
					}
				}
			}
		}
	}
	JOINT RightUpLeg
	{
		OFFSET -0.067670 -0.090522 -0.004320
		CHANNELS 3 Zrotation Yrotation Xrotation
		JOINT RightLeg
		{
			OFFSET -0.038290 -0.382569 -0.008850
			CHANNELS 3 Zrotation Yrotation Xrotation
			JOINT RightFoot
			{
				OFFSET 0.015774 -0.398415 -0.042312
				CHANNELS 3 Zrotation Yrotation Xrotation
				JOINT RightToe
				{
					OFFSET -0.025372 -0.048144 0.123348
					CHANNELS 3 Zrotation Yrotation Xrotation
					End Site
					{
						OFFSET 0.000000 0.000000 0.000000
					}
				}
			}
		}
	}
	JOINT Spine
	{
		OFFSET -0.002533 0.108963 -0.026696
		CHANNELS 3 Zrotation Yrotation Xrotation
		JOINT Spine1
		{
			OFFSET 0.005487 0.135180 0.001092
			CHANNELS 3 Zrotation Yrotation Xrotation
			JOINT Spine2
			{
				OFFSET 0.001457 0.052922 0.025425
				CHANNELS 3 Zrotation Yrotation Xrotation
				JOINT Neck
				{
					OFFSET -0.002778 0.213870 -0.042857
					CHANNELS 3 Zrotation Yrotation Xrotation
					JOINT Head
					{
						OFFSET 0.005152 0.064970 0.051349
						CHANNELS 3 Zrotation Yrotation Xrotation
						End Site
						{
							OFFSET 0.000000 0.000000 0.000000
						}
					}
				}
				JOINT LeftShoulder
				{
					OFFSET 0.078845 0.121749 -0.034090
					CHANNELS 3 Zrotation Yrotation Xrotation
					JOINT LeftArm
					{
						OFFSET 0.090977 0.030469 -0.008868
						CHANNELS 3 Zrotation Yrotation Xrotation
						JOINT LeftForeArm
						{
							OFFSET 0.259612 -0.012772 -0.027456
							CHANNELS 3 Zrotation Yrotation Xrotation
							JOINT LeftHand
							{
								OFFSET 0.249234 0.008986 -0.001171
								CHANNELS 3 Zrotation Yrotation Xrotation
								End Site
								{
									OFFSET 0.000000 0.000000 0.000000
								}
							}
						}
					}
				}
				JOINT RightShoulder
				{
					OFFSET -0.081759 0.118833 -0.038615
					CHANNELS 3 Zrotation Yrotation Xrotation
					JOINT RightArm
					{
						OFFSET -0.096012 0.032551 -0.009143
						CHANNELS 3 Zrotation Yrotation Xrotation
						JOINT RightForeArm
						{
							OFFSET -0.253742 -0.013329 -0.021401
							CHANNELS 3 Zrotation Yrotation Xrotation
							JOINT RightHand
							{
								OFFSET -0.255298 0.007772 -0.005559
								CHANNELS 3 Zrotation Yrotation Xrotation
								End Site
								{
									OFFSET 0.000000 0.000000 0.000000
								}
							}
						}
					}
				}
			}
		}
	}
}
MOTION
Frames: 8
Frame Time: 0.050000
-0.028668 0.911355 -0.029980 -1.078465 -8.105830 4.818362 17.722496 4.191968 -40.968424 -19.007805 8.810013 35.985099 12.444520 21.711864 41.294929 0.000000 0.000000 0.000000 6.559856 -0.366518 0.493454 -12.687563 -0.052457 -9.094647 -0.721053 -3.664399 3.311047 0.000000 0.000000 0.000000 5.361111 -1.010221 11.054420 -1.694073 0.886876 3.063581 -1.973981 13.847041 4.980441 7.656259 -6.577192 1.311120 0.000000 0.000000 0.000000 -23.166859 -6.441930 -1.778128 -29.318545 4.239105 -3.474780 -62.723635 -37.024414 22.678103 0.000000 0.000000 0.000000 20.813044 -3.926059 -1.489704 40.263210 1.944828 -4.047933 54.441540 45.293928 28.075054 0.000000 0.000000 0.000000 
-0.028036 0.904156 0.001776 -0.601193 -9.340888 4.472958 18.292109 4.254264 -37.880737 -21.921193 11.911199 41.048228 13.585473 22.693604 42.005735 0.000000 0.000000 0.000000 5.140316 -0.579638 2.514004 -9.001699 0.586321 -2.257325 -4.636849 -6.625322 -9.399455 0.000000 0.000000 0.000000 5.124226 -0.789458 8.557217 -2.497190 1.334583 3.509964 -1.788298 13.789668 5.013874 7.472547 -5.867233 -0.728829 0.000000 0.000000 0.000000 -23.272566 -5.310270 -2.192623 -29.287739 4.653636 -3.627467 -59.883712 -37.421303 21.894632 0.000000 0.000000 0.000000 21.769335 -4.738397 -2.202193 40.704176 2.085150 -4.015779 54.404466 47.678561 29.438101 0.000000 0.000000 0.000000 
-0.026243 0.894761 0.036496 -0.399195 -9.738629 2.942091 17.239339 3.315633 -32.997840 -21.813347 12.431387 42.378407 14.054793 23.057756 43.061408 0.000000 0.000000 0.000000 3.751275 -0.877534 5.991856 -5.155110 0.894627 4.591928 -6.965920 -9.256747 -18.010448 0.000000 0.000000 0.000000 4.675239 -0.678090 7.927441 -2.026127 1.057688 2.419797 -2.554754 13.282807 6.055610 7.626643 -5.987919 -0.890147 0.000000 0.000000 0.000000 -21.957556 -4.803857 -1.991462 -29.980333 5.477493 -4.075966 -57.110863 -40.418412 22.684103 0.000000 0.000000 0.000000 23.440530 -5.018245 -2.584746 40.582267 2.140590 -4.097141 54.678635 49.828401 30.848738 0.000000 0.000000 0.000000 
-0.023051 0.881356 0.073030 -1.059632 -10.727319 3.320161 16.312184 2.558636 -28.020223 -21.113736 12.275147 41.740679 16.039504 24.878972 40.465463 0.000000 0.000000 0.000000 2.624508 -0.967447 8.014065 -1.345083 0.906406 11.709205 -8.275919 -9.422823 -25.615340 0.000000 0.000000 0.000000 6.078043 -0.469111 4.117948 -3.548490 1.960413 4.392911 -2.010824 12.499709 5.273715 6.772588 -4.971249 -2.219063 0.000000 0.000000 0.000000 -20.616940 -3.494081 -2.111433 -31.024351 3.843761 -3.966698 -54.314317 -41.616213 22.349660 0.000000 0.000000 0.000000 21.771200 -5.376296 -3.116704 42.911608 2.339869 -3.950537 51.212157 52.273970 30.127172 0.000000 0.000000 0.000000 
-0.018097 0.865874 0.110205 -2.176416 -11.551114 3.571152 15.109976 1.784508 -22.795243 -19.444674 11.110434 39.664309 19.052722 29.104676 29.418452 0.000000 0.000000 0.000000 1.689053 -0.949275 9.176592 0.939183 0.986007 18.693018 -8.996985 -8.613893 -30.949627 0.000000 0.000000 0.000000 7.156712 -0.263819 1.624174 -3.970948 2.168176 3.859947 -1.579017 11.733033 6.480173 6.513922 -4.535120 -3.534237 0.000000 0.000000 0.000000 -19.571199 -3.513636 -1.522193 -33.019788 2.617805 -4.168001 -51.431436 -43.675368 22.482757 0.000000 0.000000 0.000000 22.189541 -5.039033 -3.268367 42.297103 2.617697 -3.847044 49.355189 54.261223 29.935341 0.000000 0.000000 0.000000 
-0.011244 0.848404 0.147407 -2.350267 -11.916501 4.263575 13.372120 1.010966 -17.946992 -19.003884 10.204691 36.364034 20.752080 34.473966 15.282665 0.000000 0.000000 0.000000 0.432085 -0.901549 10.916518 0.708415 1.330933 21.963589 -9.422315 -7.543882 -34.635772 0.000000 0.000000 0.000000 7.653578 -0.077806 -0.295885 -4.256824 2.338670 4.075750 -1.849115 10.523279 5.563195 6.432362 -4.047917 -5.883777 0.000000 0.000000 0.000000 -21.225359 -3.777744 -1.283699 -33.131023 -0.568764 -3.419764 -43.858884 -44.388541 19.649212 0.000000 0.000000 0.000000 22.868410 -3.047842 -2.532340 41.342967 3.826310 -3.247502 39.923454 55.628100 24.634656 0.000000 0.000000 0.000000 
-0.002392 0.831794 0.184694 -2.242141 -12.325344 5.501581 11.888588 0.601956 -15.772318 -19.307645 10.296901 35.437446 21.589971 38.795396 6.837497 0.000000 0.000000 0.000000 -0.932675 -0.783201 12.853922 -0.636119 1.709184 21.889231 -9.687997 -6.475632 -36.529832 0.000000 0.000000 0.000000 8.218455 0.157068 -2.500505 -4.737303 2.691857 5.138407 -2.676185 9.776367 2.761797 6.050225 -3.762939 -5.779258 0.000000 0.000000 0.000000 -22.955482 -6.040555 -0.143813 -33.962114 -3.637746 -2.565971 -34.053704 -42.205445 14.545090 0.000000 0.000000 0.000000 24.785768 -0.869052 -1.622725 40.616880 5.340525 -2.500875 27.013204 53.466954 16.219854 0.000000 0.000000 0.000000 
0.007938 0.817262 0.222153 -2.099187 -12.413623 7.364583 9.913151 0.168767 -13.745050 -19.306627 9.849986 33.409445 20.898816 42.758150 -3.208456 0.000000 0.000000 0.000000 -2.598338 -0.520165 14.146512 -1.854748 1.947867 21.048727 -9.715946 -4.991690 -37.376693 0.000000 0.000000 0.000000 8.551880 0.288464 -3.897380 -5.493043 2.942425 3.500493 -1.962561 9.641988 1.713418 6.061921 -3.395809 -7.890611 0.000000 0.000000 0.000000 -24.991127 -7.627005 0.694770 -34.090135 -4.434425 -2.286870 -29.705000 -41.123955 12.479675 0.000000 0.000000 0.000000 24.530838 -0.162574 -1.365827 40.376591 6.025058 -2.124284 22.228244 49.639102 12.422170 0.000000 0.000000 0.000000 
